<?xml version="1.0" encoding="UTF-8"?>
<!DOCTYPE svg PUBLIC "-//W3C//DTD SVG 1.1//EN" "http://www.w3.org/Graphics/SVG/1.1/DTD/svg11.dtd">
<svg xmlns="http://www.w3.org/2000/svg" version="1.1" width="900px" height="900px" style="shape-rendering:geometricPrecision; text-rendering:geometricPrecision; image-rendering:optimizeQuality; fill-rule:evenodd; clip-rule:evenodd" xmlns:xlink="http://www.w3.org/1999/xlink">
<g><path style="opacity:1" fill="#211c1b" d="M -0.5,-0.5 C 299.5,-0.5 599.5,-0.5 899.5,-0.5C 899.5,299.5 899.5,599.5 899.5,899.5C 599.5,899.5 299.5,899.5 -0.5,899.5C -0.5,599.5 -0.5,299.5 -0.5,-0.5 Z"/></g>
<g><path style="opacity:1" fill="#491817" d="M 490.5,164.5 C 491.038,162.883 491.371,161.216 491.5,159.5C 393.955,158.839 296.622,159.506 199.5,161.5C 199.297,159.61 199.963,158.11 201.5,157C 298.167,156.333 394.833,156.333 491.5,157C 492.308,157.308 492.975,157.808 493.5,158.5C 493.229,161.047 492.229,163.047 490.5,164.5 Z"/></g>
<g><path style="opacity:1" fill="#f80000" d="M 490.5,164.5 C 488.975,171.444 487.308,178.444 485.5,185.5C 483.926,187.102 483.259,189.102 483.5,191.5C 480.824,204.241 478.158,216.907 475.5,229.5C 472.916,234.05 471.583,239.05 471.5,244.5C 469.966,249.362 468.966,254.362 468.5,259.5C 467.596,260.209 467.263,261.209 467.5,262.5C 416.5,262.5 365.5,262.5 314.5,262.5C 313.275,263.152 312.608,264.319 312.5,266C 311.226,273.201 309.893,280.368 308.5,287.5C 307.908,290.127 307.575,292.794 307.5,295.5C 305.777,297.78 305.111,300.447 305.5,303.5C 352.167,303.5 398.833,303.5 445.5,303.5C 444.539,306.426 443.873,309.426 443.5,312.5C 439.417,330.879 435.417,349.213 431.5,367.5C 430.5,367.5 429.5,367.5 428.5,367.5C 428.133,373.885 427.466,380.219 426.5,386.5C 425.566,387.568 425.232,388.901 425.5,390.5C 434.895,389.862 443.895,390.529 452.5,392.5C 452.007,394.806 451.674,397.139 451.5,399.5C 450.662,399.842 450.328,400.508 450.5,401.5C 403.874,400.343 357.208,400.177 310.5,401C 310.167,401.333 309.833,401.667 309.5,402C 355.837,402.167 402.17,402.667 448.5,403.5C 402.002,404.167 355.668,404.833 309.5,405.5C 309.5,405.833 309.5,406.167 309.5,406.5C 309.167,407.833 308.833,409.167 308.5,410.5C 307.097,414.381 306.097,418.381 305.5,422.5C 303.926,424.102 303.259,426.102 303.5,428.5C 303.428,432.626 302.761,436.626 301.5,440.5C 300.21,441.058 299.377,442.058 299,443.5C 298.172,447.466 297.672,451.466 297.5,455.5C 297.784,457.415 297.451,459.081 296.5,460.5C 295.886,463.308 294.719,465.975 293,468.5C 292.58,472.191 292.08,475.858 291.5,479.5C 290.644,485.926 289.31,492.259 287.5,498.5C 284.578,513.598 281.244,528.598 277.5,543.5C 276.768,544.808 275.934,546.142 275,547.5C 273.853,552.466 273.02,557.466 272.5,562.5C 227.828,562.167 183.162,562.5 138.5,563.5C 182.828,564.5 227.162,564.833 271.5,564.5C 271.5,564.833 271.5,565.167 271.5,565.5C 271.5,565.833 271.5,566.167 271.5,566.5C 225.821,567.162 180.488,566.495 135.5,564.5C 136.314,562.369 136.814,560.036 137,557.5C 137.71,558.973 138.876,559.64 140.5,559.5C 140.336,556.813 140.503,554.146 141,551.5C 142.526,550.455 143.359,548.955 143.5,547C 142.307,541.772 142.307,536.605 143.5,531.5C 143.5,530.167 143.5,528.833 143.5,527.5C 145.223,525.22 145.889,522.553 145.5,519.5C 145.263,518.209 145.596,517.209 146.5,516.5C 149.542,509.94 151.209,502.94 151.5,495.5C 152.927,488.019 154.594,480.686 156.5,473.5C 158.13,470.47 159.13,467.137 159.5,463.5C 159.58,457.875 160.58,452.542 162.5,447.5C 164.896,441.374 166.729,435.04 168,428.5C 168.497,425.854 168.664,423.187 168.5,420.5C 169.024,418.694 169.691,417.028 170.5,415.5C 173.539,408.269 175.206,400.602 175.5,392.5C 175.5,391.833 175.5,391.167 175.5,390.5C 175.5,390.167 175.5,389.833 175.5,389.5C 166.619,389.155 157.952,388.155 149.5,386.5C 149.455,380.64 150.455,374.974 152.5,369.5C 154.283,365.114 155.283,360.447 155.5,355.5C 156.834,350.11 158.167,344.776 159.5,339.5C 160.5,339.5 161.5,339.5 162.5,339.5C 162.754,330.728 163.754,322.061 165.5,313.5C 165.851,310.097 166.518,306.763 167.5,303.5C 169.074,301.898 169.741,299.898 169.5,297.5C 169.5,297.167 169.5,296.833 169.5,296.5C 170.558,295.4 171.392,294.066 172,292.5C 173.711,286.271 174.878,279.938 175.5,273.5C 175.994,266.348 177.327,259.348 179.5,252.5C 182.035,248.645 183.035,244.312 182.5,239.5C 184.538,229.353 186.871,219.353 189.5,209.5C 191.163,207.562 191.829,205.228 191.5,202.5C 191.5,201.5 191.5,200.5 191.5,199.5C 193.223,197.22 193.889,194.553 193.5,191.5C 194.682,185.775 196.015,180.108 197.5,174.5C 198.924,172.485 199.59,170.152 199.5,167.5C 199.5,165.5 199.5,163.5 199.5,161.5C 296.622,159.506 393.955,158.839 491.5,159.5C 491.371,161.216 491.038,162.883 490.5,164.5 Z"/></g>
<g><path style="opacity:1" fill="#101c19" d="M 735.5,162.5 C 694.5,162.5 653.5,162.5 612.5,162.5C 611.957,162.44 611.624,162.107 611.5,161.5C 632.167,161.167 652.833,160.833 673.5,160.5C 694.511,160.5 715.178,161.167 735.5,162.5 Z"/></g>
<g><path style="opacity:1" fill="#721917" d="M 612.5,162.5 C 653.5,162.5 694.5,162.5 735.5,162.5C 735.5,162.833 735.5,163.167 735.5,163.5C 694.832,163.333 654.165,163.5 613.5,164C 612.956,164.717 612.289,165.217 611.5,165.5C 611.557,164.391 611.89,163.391 612.5,162.5 Z"/></g>
<g><path style="opacity:1" fill="#8e1311" d="M 199.5,167.5 C 199.59,170.152 198.924,172.485 197.5,174.5C 197.41,171.848 198.076,169.515 199.5,167.5 Z"/></g>
<g><path style="opacity:1" fill="#f80000" d="M 735.5,163.5 C 731.414,182.054 727.414,200.72 723.5,219.5C 722.542,219.953 721.708,220.619 721,221.5C 720.661,224.88 720.161,228.213 719.5,231.5C 712.912,262.569 706.246,293.569 699.5,324.5C 697.126,327.686 696.126,331.353 696.5,335.5C 695.738,341.092 694.405,346.426 692.5,351.5C 690.755,355.2 689.755,359.2 689.5,363.5C 688.833,368.167 688.167,372.833 687.5,377.5C 695.719,377.846 703.719,378.846 711.5,380.5C 707.497,399.235 703.497,417.902 699.5,436.5C 697.036,442.123 695.702,448.123 695.5,454.5C 693.746,458.258 693.079,462.258 693.5,466.5C 693.167,466.5 692.833,466.5 692.5,466.5C 692.167,466.5 691.833,466.5 691.5,466.5C 690.549,467.919 690.216,469.585 690.5,471.5C 714.5,471.5 738.5,471.5 762.5,471.5C 762.5,473.167 762.5,474.833 762.5,476.5C 761.448,476.351 760.448,476.517 759.5,477C 760.556,481.109 760.556,485.275 759.5,489.5C 754.655,513.552 749.322,537.552 743.5,561.5C 650.045,563.494 556.379,564.16 462.5,563.5C 462.5,562.167 462.5,560.833 462.5,559.5C 463.434,558.432 463.768,557.099 463.5,555.5C 468.689,531.568 474.022,507.568 479.5,483.5C 481.163,481.562 481.829,479.228 481.5,476.5C 482.738,474.786 483.405,472.786 483.5,470.5C 509.005,470.831 534.339,470.498 559.5,469.5C 559.5,467.833 559.5,466.167 559.5,464.5C 559.5,464.167 559.5,463.833 559.5,463.5C 563.625,456.264 565.625,448.264 565.5,439.5C 565.958,435.462 566.624,431.462 567.5,427.5C 569.223,425.22 569.889,422.553 569.5,419.5C 572.172,407.343 574.838,395.343 577.5,383.5C 578.461,381.735 578.795,379.735 578.5,377.5C 570.833,377.5 563.167,377.5 555.5,377.5C 554.903,377.265 554.57,376.765 554.5,376C 556.716,365.346 559.049,354.846 561.5,344.5C 564.77,338.334 566.437,331.667 566.5,324.5C 567.222,324.082 567.722,323.416 568,322.5C 568.498,319.518 568.665,316.518 568.5,313.5C 570.011,310.456 570.678,307.122 570.5,303.5C 545.824,303.833 521.158,303.5 496.5,302.5C 498.44,297.752 499.44,292.752 499.5,287.5C 500.232,286.192 501.066,284.858 502,283.5C 502.693,278.394 503.86,273.394 505.5,268.5C 506.167,270.167 506.833,271.833 507.5,273.5C 507.833,272.5 508.167,271.5 508.5,270.5C 507.596,268.083 506.929,265.583 506.5,263C 507.864,257.922 508.531,252.755 508.5,247.5C 509.217,243.078 510.217,238.744 511.5,234.5C 512.966,233.653 513.8,232.32 514,230.5C 515,225.167 516,219.833 517,214.5C 518.302,213.915 519.469,213.249 520.5,212.5C 524.664,210.865 528.998,209.365 533.5,208C 540.9,206.798 548.234,205.298 555.5,203.5C 559.99,203.217 563.99,201.883 567.5,199.5C 585.62,192.722 600.287,181.389 611.5,165.5C 612.289,165.217 612.956,164.717 613.5,164C 654.165,163.5 694.832,163.333 735.5,163.5 Z"/></g>
<g><path style="opacity:1" fill="#8a1212" d="M 485.5,185.5 C 485.741,187.898 485.074,189.898 483.5,191.5C 483.259,189.102 483.926,187.102 485.5,185.5 Z"/></g>
<g><path style="opacity:1" fill="#8b1411" d="M 193.5,191.5 C 193.889,194.553 193.223,197.22 191.5,199.5C 191.565,196.572 192.232,193.905 193.5,191.5 Z"/></g>
<g><path style="opacity:1" fill="#a51312" d="M 567.5,199.5 C 563.99,201.883 559.99,203.217 555.5,203.5C 555.611,202.883 555.944,202.383 556.5,202C 560.351,201.586 564.017,200.752 567.5,199.5 Z"/></g>
<g><path style="opacity:1" fill="#831410" d="M 191.5,202.5 C 191.829,205.228 191.163,207.562 189.5,209.5C 189.338,207.473 189.505,205.473 190,203.5C 190.383,202.944 190.883,202.611 191.5,202.5 Z"/></g>
<g><path style="opacity:1" fill="#aa1515" d="M 723.5,219.5 C 722.514,223.113 721.681,226.779 721,230.5C 720.617,231.056 720.117,231.389 719.5,231.5C 720.161,228.213 720.661,224.88 721,221.5C 721.708,220.619 722.542,219.953 723.5,219.5 Z"/></g>
<g><path style="opacity:1" fill="#b21111" d="M 520.5,212.5 C 519.469,213.249 518.302,213.915 517,214.5C 516,219.833 515,225.167 514,230.5C 513.8,232.32 512.966,233.653 511.5,234.5C 512.783,227.474 514.283,220.474 516,213.5C 517.356,212.62 518.856,212.286 520.5,212.5 Z"/></g>
<g><path style="opacity:1" fill="#9a1411" d="M 475.5,229.5 C 474.478,234.697 473.145,239.697 471.5,244.5C 471.583,239.05 472.916,234.05 475.5,229.5 Z"/></g>
<g><path style="opacity:1" fill="#9c1213" d="M 182.5,239.5 C 183.035,244.312 182.035,248.645 179.5,252.5C 179.763,247.876 180.763,243.542 182.5,239.5 Z"/></g>
<g><path style="opacity:1" fill="#3f0203" d="M 468.5,259.5 C 468.5,260.833 468.5,262.167 468.5,263.5C 417.095,263.171 365.762,263.505 314.5,264.5C 314.5,263.833 314.5,263.167 314.5,262.5C 365.5,262.5 416.5,262.5 467.5,262.5C 467.263,261.209 467.596,260.209 468.5,259.5 Z"/></g>
<g><path style="opacity:1" fill="#d10e0d" d="M 508.5,247.5 C 508.531,252.755 507.864,257.922 506.5,263C 506.929,265.583 507.596,268.083 508.5,270.5C 508.167,271.5 507.833,272.5 507.5,273.5C 506.833,271.833 506.167,270.167 505.5,268.5C 503.86,273.394 502.693,278.394 502,283.5C 501.066,284.858 500.232,286.192 499.5,287.5C 502.531,274.054 505.531,260.721 508.5,247.5 Z"/></g>
<g><path style="opacity:1" fill="#a81411" d="M 314.5,262.5 C 314.5,263.167 314.5,263.833 314.5,264.5C 313.023,272.432 311.023,280.099 308.5,287.5C 309.893,280.368 311.226,273.201 312.5,266C 312.608,264.319 313.275,263.152 314.5,262.5 Z"/></g>
<g><path style="opacity:1" fill="#bc0f10" d="M 175.5,273.5 C 174.878,279.938 173.711,286.271 172,292.5C 171.392,294.066 170.558,295.4 169.5,296.5C 170.957,289.112 172.457,281.779 174,274.5C 174.383,273.944 174.883,273.611 175.5,273.5 Z"/></g>
<g><path style="opacity:1" fill="#700e12" d="M 307.5,295.5 C 307.167,297.5 306.833,299.5 306.5,301.5C 353.167,301.5 399.833,301.5 446.5,301.5C 446.874,305.647 445.874,309.314 443.5,312.5C 443.873,309.426 444.539,306.426 445.5,303.5C 398.833,303.5 352.167,303.5 305.5,303.5C 305.111,300.447 305.777,297.78 307.5,295.5 Z"/></g>
<g><path style="opacity:1" fill="#790f11" d="M 169.5,297.5 C 169.741,299.898 169.074,301.898 167.5,303.5C 167.259,301.102 167.926,299.102 169.5,297.5 Z"/></g>
<g><path style="opacity:1" fill="#8d1314" d="M 499.5,287.5 C 499.44,292.752 498.44,297.752 496.5,302.5C 521.158,303.5 545.824,303.833 570.5,303.5C 570.678,307.122 570.011,310.456 568.5,313.5C 568.575,310.794 568.908,308.127 569.5,305.5C 544.833,305.5 520.167,305.5 495.5,305.5C 495.337,303.143 495.503,300.81 496,298.5C 496.748,294.567 497.915,290.9 499.5,287.5 Z"/></g>
<g><path style="opacity:1" fill="#ad1311" d="M 568.5,313.5 C 568.665,316.518 568.498,319.518 568,322.5C 567.722,323.416 567.222,324.082 566.5,324.5C 566.646,320.613 567.313,316.946 568.5,313.5 Z"/></g>
<g><path style="opacity:1" fill="#811614" d="M 699.5,324.5 C 698.733,328.327 697.733,331.994 696.5,335.5C 696.126,331.353 697.126,327.686 699.5,324.5 Z"/></g>
<g><path style="opacity:1" fill="#b11011" d="M 566.5,324.5 C 566.437,331.667 564.77,338.334 561.5,344.5C 562.432,337.463 564.098,330.797 566.5,324.5 Z"/></g>
<g><path style="opacity:1" fill="#ba0f0f" d="M 165.5,313.5 C 163.754,322.061 162.754,330.728 162.5,339.5C 161.5,339.5 160.5,339.5 159.5,339.5C 161.084,330.62 163.084,321.953 165.5,313.5 Z"/></g>
<g><path style="opacity:1" fill="#a81113" d="M 692.5,351.5 C 692.245,355.8 691.245,359.8 689.5,363.5C 689.755,359.2 690.755,355.2 692.5,351.5 Z"/></g>
<g><path style="opacity:1" fill="#6c1514" d="M 155.5,355.5 C 155.283,360.447 154.283,365.114 152.5,369.5C 152.717,364.553 153.717,359.886 155.5,355.5 Z"/></g>
<g><path style="opacity:1" fill="#c30e0c" d="M 431.5,367.5 C 429.878,373.734 428.544,380.067 427.5,386.5C 427.167,386.5 426.833,386.5 426.5,386.5C 427.466,380.219 428.133,373.885 428.5,367.5C 429.5,367.5 430.5,367.5 431.5,367.5 Z"/></g>
<g><path style="opacity:1" fill="#751313" d="M 555.5,377.5 C 563.167,377.5 570.833,377.5 578.5,377.5C 578.795,379.735 578.461,381.735 577.5,383.5C 577.5,381.833 577.5,380.167 577.5,378.5C 569.981,378.825 562.648,378.492 555.5,377.5 Z"/></g>
<g><path style="opacity:1" fill="#960e0d" d="M 687.5,377.5 C 695.833,377.5 704.167,377.5 712.5,377.5C 712.737,378.791 712.404,379.791 711.5,380.5C 703.719,378.846 695.719,377.846 687.5,377.5 Z"/></g>
<g><path style="opacity:1" fill="#c31112" d="M 148.5,386.5 C 148.833,386.5 149.167,386.5 149.5,386.5C 157.952,388.155 166.619,389.155 175.5,389.5C 166.5,389.5 157.5,389.5 148.5,389.5C 148.5,388.5 148.5,387.5 148.5,386.5 Z"/></g>
<g><path style="opacity:1" fill="#6a191a" d="M 426.5,386.5 C 426.833,386.5 427.167,386.5 427.5,386.5C 435.952,388.155 444.619,389.155 453.5,389.5C 444.5,389.5 435.5,389.5 426.5,389.5C 426.5,388.5 426.5,387.5 426.5,386.5 Z"/></g>
<g><path style="opacity:1" fill="#430e0f" d="M 148.5,386.5 C 148.5,387.5 148.5,388.5 148.5,389.5C 157.5,389.5 166.5,389.5 175.5,389.5C 175.5,389.833 175.5,390.167 175.5,390.5C 166.167,390.5 156.833,390.5 147.5,390.5C 147.232,388.901 147.566,387.568 148.5,386.5 Z"/></g>
<g><path style="opacity:1" fill="#c80b0d" d="M 426.5,386.5 C 426.5,387.5 426.5,388.5 426.5,389.5C 435.5,389.5 444.5,389.5 453.5,389.5C 453.737,390.791 453.404,391.791 452.5,392.5C 443.895,390.529 434.895,389.862 425.5,390.5C 425.232,388.901 425.566,387.568 426.5,386.5 Z"/></g>
<g><path style="opacity:1" fill="#ec0405" d="M 450.5,401.5 C 450.67,402.822 450.337,403.989 449.5,405C 402.835,405.5 356.168,405.667 309.5,405.5C 355.668,404.833 402.002,404.167 448.5,403.5C 402.17,402.667 355.837,402.167 309.5,402C 309.833,401.667 310.167,401.333 310.5,401C 357.208,400.177 403.874,400.343 450.5,401.5 Z"/></g>
<g><path style="opacity:1" fill="#b81212" d="M 175.5,392.5 C 175.206,400.602 173.539,408.269 170.5,415.5C 171.444,407.417 173.111,399.751 175.5,392.5 Z"/></g>
<g><path style="opacity:1" fill="#8a1c1b" d="M 451.5,399.5 C 451.662,401.527 451.495,403.527 451,405.5C 450.617,406.056 450.117,406.389 449.5,406.5C 402.833,406.5 356.167,406.5 309.5,406.5C 309.5,406.167 309.5,405.833 309.5,405.5C 356.168,405.667 402.835,405.5 449.5,405C 450.337,403.989 450.67,402.822 450.5,401.5C 450.328,400.508 450.662,399.842 451.5,399.5 Z"/></g>
<g><path style="opacity:1" fill="#2c0a0b" d="M 309.5,406.5 C 356.167,406.5 402.833,406.5 449.5,406.5C 403.336,407.499 357.003,407.832 310.5,407.5C 310.715,409.179 310.048,410.179 308.5,410.5C 308.833,409.167 309.167,407.833 309.5,406.5 Z"/></g>
<g><path style="opacity:1" fill="#7f1414" d="M 305.5,422.5 C 305.741,424.898 305.074,426.898 303.5,428.5C 303.259,426.102 303.926,424.102 305.5,422.5 Z"/></g>
<g><path style="opacity:1" fill="#7d1515" d="M 569.5,419.5 C 569.889,422.553 569.223,425.22 567.5,427.5C 567.565,424.572 568.232,421.905 569.5,419.5 Z"/></g>
<g><path style="opacity:1" fill="#a91312" d="M 168.5,420.5 C 168.664,423.187 168.497,425.854 168,428.5C 166.729,435.04 164.896,441.374 162.5,447.5C 163.718,438.214 165.718,429.214 168.5,420.5 Z"/></g>
<g><path style="opacity:1" fill="#b11411" d="M 301.5,440.5 C 300.347,445.661 299.014,450.661 297.5,455.5C 297.672,451.466 298.172,447.466 299,443.5C 299.377,442.058 300.21,441.058 301.5,440.5 Z"/></g>
<g><path style="opacity:1" fill="#ba1210" d="M 565.5,439.5 C 565.625,448.264 563.625,456.264 559.5,463.5C 560.898,455.24 562.898,447.24 565.5,439.5 Z"/></g>
<g><path style="opacity:1" fill="#5e1310" d="M 699.5,436.5 C 698.487,442.694 697.154,448.694 695.5,454.5C 695.702,448.123 697.036,442.123 699.5,436.5 Z"/></g>
<g><path style="opacity:1" fill="#291616" d="M 559.5,464.5 C 559.5,466.167 559.5,467.833 559.5,469.5C 534.167,469.5 508.833,469.5 483.5,469.5C 483.5,469.167 483.5,468.833 483.5,468.5C 582.167,467.833 582.167,467.167 483.5,466.5C 482.624,466.631 481.957,466.298 481.5,465.5C 507.491,464.5 533.491,464.167 559.5,464.5 Z"/></g>
<g><path style="opacity:1" fill="#0c2423" d="M 483.5,466.5 C 582.167,467.167 582.167,467.833 483.5,468.5C 483.5,467.833 483.5,467.167 483.5,466.5 Z"/></g>
<g><path style="opacity:1" fill="#0c2423" d="M 693.5,466.5 C 716.843,466.167 740.176,466.5 763.5,467.5C 751.833,467.833 740.167,468.167 728.5,468.5C 716.48,468.499 704.814,467.832 693.5,466.5 Z"/></g>
<g><path style="opacity:1" fill="#af130f" d="M 296.5,460.5 C 296.785,463.829 296.118,466.829 294.5,469.5C 293.982,472.979 292.982,476.312 291.5,479.5C 292.08,475.858 292.58,472.191 293,468.5C 294.719,465.975 295.886,463.308 296.5,460.5 Z"/></g>
<g><path style="opacity:1" fill="#991312" d="M 483.5,469.5 C 508.833,469.5 534.167,469.5 559.5,469.5C 534.339,470.498 509.005,470.831 483.5,470.5C 483.405,472.786 482.738,474.786 481.5,476.5C 481.41,473.848 482.076,471.515 483.5,469.5 Z"/></g>
<g><path style="opacity:1" fill="#961313" d="M 691.5,466.5 C 691.833,466.5 692.167,466.5 692.5,466.5C 692.5,467.5 692.5,468.5 692.5,469.5C 716.5,469.5 740.5,469.5 764.5,469.5C 764.795,471.735 764.461,473.735 763.5,475.5C 763.5,473.833 763.5,472.167 763.5,470.5C 739.5,470.5 715.5,470.5 691.5,470.5C 691.5,469.167 691.5,467.833 691.5,466.5 Z"/></g>
<g><path style="opacity:1" fill="#b71413" d="M 159.5,463.5 C 159.13,467.137 158.13,470.47 156.5,473.5C 156.67,471.152 157.003,468.818 157.5,466.5C 157.64,464.97 158.307,463.97 159.5,463.5 Z"/></g>
<g><path style="opacity:1" fill="#e10a0b" d="M 691.5,466.5 C 691.5,467.833 691.5,469.167 691.5,470.5C 715.5,470.5 739.5,470.5 763.5,470.5C 763.5,472.167 763.5,473.833 763.5,475.5C 762.454,480.364 761.121,485.031 759.5,489.5C 760.556,485.275 760.556,481.109 759.5,477C 760.448,476.517 761.448,476.351 762.5,476.5C 762.5,474.833 762.5,473.167 762.5,471.5C 738.5,471.5 714.5,471.5 690.5,471.5C 690.216,469.585 690.549,467.919 691.5,466.5 Z"/></g>
<g><path style="opacity:1" fill="#7f1312" d="M 481.5,476.5 C 481.829,479.228 481.163,481.562 479.5,483.5C 479.41,480.848 480.076,478.515 481.5,476.5 Z"/></g>
<g><path style="opacity:1" fill="#361516" d="M 294.5,469.5 C 294.137,473.683 294.804,477.683 296.5,481.5C 295.809,483.891 294.809,483.891 293.5,481.5C 291.443,486.623 290.276,491.956 290,497.5C 289.329,498.252 288.496,498.586 287.5,498.5C 289.31,492.259 290.644,485.926 291.5,479.5C 292.982,476.312 293.982,472.979 294.5,469.5 Z"/></g>
<g><path style="opacity:1" fill="#b51312" d="M 151.5,495.5 C 151.209,502.94 149.542,509.94 146.5,516.5C 146.788,509.059 148.455,502.059 151.5,495.5 Z"/></g>
<g><path style="opacity:1" fill="#930f09" d="M 145.5,519.5 C 145.889,522.553 145.223,525.22 143.5,527.5C 143.294,524.505 143.96,521.838 145.5,519.5 Z"/></g>
<g><path style="opacity:1" fill="#d50d0b" d="M 143.5,531.5 C 142.307,536.605 142.307,541.772 143.5,547C 143.359,548.955 142.526,550.455 141,551.5C 140.503,554.146 140.336,556.813 140.5,559.5C 138.876,559.64 137.71,558.973 137,557.5C 136.814,560.036 136.314,562.369 135.5,564.5C 135.336,561.813 135.503,559.146 136,556.5C 137.875,547.734 140.375,539.4 143.5,531.5 Z"/></g>
<g><path style="opacity:1" fill="#b21311" d="M 277.5,543.5 C 276.056,548.729 275.056,554.062 274.5,559.5C 273.985,561.751 272.985,563.751 271.5,565.5C 271.5,565.167 271.5,564.833 271.5,564.5C 271.833,563.833 272.167,563.167 272.5,562.5C 273.02,557.466 273.853,552.466 275,547.5C 275.934,546.142 276.768,544.808 277.5,543.5 Z"/></g>
<g><path style="opacity:1" fill="#ed0407" d="M 272.5,562.5 C 272.167,563.167 271.833,563.833 271.5,564.5C 227.162,564.833 182.828,564.5 138.5,563.5C 183.162,562.5 227.828,562.167 272.5,562.5 Z"/></g>
<g><path style="opacity:1" fill="#e00c0c" d="M 743.5,561.5 C 743.5,562.5 743.5,563.5 743.5,564.5C 649.665,564.833 555.999,564.499 462.5,563.5C 556.379,564.16 650.045,563.494 743.5,561.5 Z"/></g>
<g><path style="opacity:1" fill="#850f0f" d="M 462.5,559.5 C 462.5,560.833 462.5,562.167 462.5,563.5C 555.999,564.499 649.665,564.833 743.5,564.5C 743.158,565.338 742.492,565.672 741.5,565.5C 648.167,565.5 554.833,565.5 461.5,565.5C 461.205,563.265 461.539,561.265 462.5,559.5 Z"/></g>
<g><path style="opacity:1" fill="#ce1312" d="M 135.5,564.5 C 180.488,566.495 225.821,567.162 271.5,566.5C 226.336,567.499 181.003,567.832 135.5,567.5C 134.167,566.5 134.167,565.5 135.5,564.5 Z"/></g>
<g><path style="opacity:1" fill="#340908" d="M 274.5,559.5 C 274.664,562.187 274.497,564.854 274,567.5C 273.329,568.252 272.496,568.586 271.5,568.5C 226.167,568.5 180.833,568.5 135.5,568.5C 135.5,568.167 135.5,567.833 135.5,567.5C 181.003,567.832 226.336,567.499 271.5,566.5C 271.5,566.167 271.5,565.833 271.5,565.5C 272.985,563.751 273.985,561.751 274.5,559.5 Z"/></g>
<g><path style="opacity:1" fill="#152123" d="M 741.5,566.5 C 742.239,566.369 742.906,566.536 743.5,567C 741.942,567.21 740.609,567.71 739.5,568.5C 647.026,568.997 554.692,568.497 462.5,567C 555.499,566.5 648.499,566.333 741.5,566.5 Z"/></g>
<g><path style="opacity:1" fill="#261717" d="M 463.5,555.5 C 463.768,557.099 463.434,558.432 462.5,559.5C 461.539,561.265 461.205,563.265 461.5,565.5C 554.833,565.5 648.167,565.5 741.5,565.5C 741.5,565.833 741.5,566.167 741.5,566.5C 648.499,566.333 555.499,566.5 462.5,567C 554.692,568.497 647.026,568.997 739.5,568.5C 740.978,568.238 742.311,568.571 743.5,569.5C 649.502,570.667 555.502,570.833 461.5,570C 458.066,567.317 456.733,563.984 457.5,560C 456.833,559.667 456.167,559.333 455.5,559C 456.191,557.933 456.691,556.766 457,555.5C 457.333,555.833 457.667,556.167 458,556.5C 458.749,564.863 459.749,565.197 461,557.5C 461.417,556.244 462.25,555.577 463.5,555.5 Z"/></g>
<g><path style="opacity:1" fill="#0c2626" d="M 135.5,568.5 C 180.833,568.5 226.167,568.5 271.5,568.5C 271.5,569.167 271.5,569.833 271.5,570.5C 226.167,570.5 180.833,570.5 135.5,570.5C 132.833,569.833 132.833,569.167 135.5,568.5 Z"/></g>
<g><path style="opacity:1" fill="#2d1917" d="M 135.5,570.5 C 180.833,570.5 226.167,570.5 271.5,570.5C 249.177,571.833 226.51,572.5 203.5,572.5C 180.49,572.5 157.823,571.833 135.5,570.5 Z"/></g>
<g><path style="opacity:1" fill="#a91412" d="M 234.5,588.5 C 221.364,588.103 208.364,589.103 195.5,591.5C 197.832,589.904 200.499,588.738 203.5,588C 214.008,587.175 224.342,587.341 234.5,588.5 Z"/></g>
<g><path style="opacity:1" fill="#0f2524" d="M 283.5,586.5 C 325.86,586.045 368.194,586.545 410.5,588C 389.333,588.167 368.167,588.333 347,588.5C 325.489,588.5 304.323,587.833 283.5,586.5 Z"/></g>
<g><path style="opacity:1" fill="#0f2524" d="M 513.5,586.5 C 556.56,586.016 599.56,586.516 642.5,588C 621,588.167 599.5,588.333 578,588.5C 556.156,588.5 534.656,587.833 513.5,586.5 Z"/></g>
<g><path style="opacity:1" fill="#b61614" d="M 234.5,588.5 C 238.509,588.858 242.509,589.358 246.5,590C 247.056,590.383 247.389,590.883 247.5,591.5C 243.881,590.82 240.214,590.32 236.5,590C 235.584,589.722 234.918,589.222 234.5,588.5 Z"/></g>
<g><path style="opacity:1" fill="#ae1916" d="M 410.5,593.5 C 410.5,592.5 410.5,591.5 410.5,590.5C 368.5,590.5 326.5,590.5 284.5,590.5C 284.323,594.708 282.99,598.374 280.5,601.5C 281.376,597.538 282.042,593.538 282.5,589.5C 325.5,589.5 368.5,589.5 411.5,589.5C 411.768,591.099 411.434,592.432 410.5,593.5 Z"/></g>
<g><path style="opacity:1" fill="#850f0f" d="M 491.5,616.5 C 489.554,608.191 488.221,599.691 487.5,591C 471.426,590.183 455.426,590.35 439.5,591.5C 447.305,590.169 455.472,589.502 464,589.5C 472.167,589.667 480.333,589.833 488.5,590C 489.873,598.749 490.873,607.583 491.5,616.5 Z"/></g>
<g><path style="opacity:1" fill="#b11916" d="M 640.5,595.5 C 640.5,593.833 640.5,592.167 640.5,590.5C 598.094,590.173 555.761,590.506 513.5,591.5C 534.656,590.167 556.156,589.5 578,589.5C 599.5,589.833 621,590.167 642.5,590.5C 641.972,592.336 641.306,594.003 640.5,595.5 Z"/></g>
<g><path style="opacity:1" fill="#a91515" d="M 741.5,591.5 C 723.515,587.528 705.515,587.528 687.5,591.5C 690.343,589.599 693.676,588.433 697.5,588C 711.933,586.899 726.267,587.565 740.5,590C 741.056,590.383 741.389,590.883 741.5,591.5 Z"/></g>
<g><path style="opacity:1" fill="#f60101" d="M 234.5,588.5 C 234.918,589.222 235.584,589.722 236.5,590C 240.214,590.32 243.881,590.82 247.5,591.5C 249.167,591.5 250.833,591.5 252.5,591.5C 252.5,592.5 252.5,593.5 252.5,594.5C 257.132,595.712 262.466,597.045 268.5,598.5C 267.459,607.96 266.126,617.293 264.5,626.5C 263.99,629.983 263.323,633.316 262.5,636.5C 257.26,637.449 251.927,637.782 246.5,637.5C 245.331,633.656 242.998,630.656 239.5,628.5C 234.255,625.834 228.922,623.834 223.5,622.5C 221.022,621.836 218.355,621.503 215.5,621.5C 212.41,621.522 209.743,622.188 207.5,623.5C 202.294,624.371 198.961,627.371 197.5,632.5C 198.065,634.405 199.065,636.071 200.5,637.5C 210.425,642.085 220.758,645.419 231.5,647.5C 233.132,648.832 234.799,650.165 236.5,651.5C 235.5,652.167 234.5,652.833 233.5,653.5C 236.745,652.92 240.079,652.92 243.5,653.5C 247.374,655.859 250.874,658.859 254,662.5C 255.202,664.677 255.702,667.011 255.5,669.5C 258.625,670.479 261.958,670.813 265.5,670.5C 265.473,677.186 265.139,683.852 264.5,690.5C 264.741,692.898 264.074,694.898 262.5,696.5C 260.473,699.22 258.807,702.22 257.5,705.5C 248.953,719.546 236.953,729.38 221.5,735C 215.702,736.855 209.702,738.022 203.5,738.5C 188.664,738.883 173.997,738.217 159.5,736.5C 158.081,735.549 156.415,735.216 154.5,735.5C 154.047,734.542 153.381,733.708 152.5,733C 148.573,731.534 144.573,730.367 140.5,729.5C 138.83,729.249 137.33,728.582 136,727.5C 135.503,724.854 135.336,722.187 135.5,719.5C 137.074,717.898 137.741,715.898 137.5,713.5C 138.691,703.927 140.691,694.593 143.5,685.5C 148.833,685.5 154.167,685.5 159.5,685.5C 159.94,691.198 162.606,695.698 167.5,699C 170.72,701.751 174.386,703.251 178.5,703.5C 178.611,704.117 178.944,704.617 179.5,705C 183.16,705.547 186.827,706.047 190.5,706.5C 192.045,706.489 193.378,706.156 194.5,705.5C 202.228,706.116 208.061,703.116 212,696.5C 212.667,694.833 212.667,693.167 212,691.5C 209.084,689.28 205.917,687.446 202.5,686C 194.457,683.875 186.457,681.542 178.5,679C 174.204,677.185 170.204,674.852 166.5,672C 154.842,672.506 148.175,667.006 146.5,655.5C 146.334,650.156 146.501,644.823 147,639.5C 147.89,634.734 149.057,630.067 150.5,625.5C 152.264,620.885 154.598,616.552 157.5,612.5C 165.846,602.653 176.179,595.82 188.5,592C 190.81,591.503 193.143,591.337 195.5,591.5C 208.364,589.103 221.364,588.103 234.5,588.5 Z"/></g>
<g><path style="opacity:1" fill="#f60101" d="M 741.5,591.5 C 743.527,591.338 745.527,591.505 747.5,592C 752.597,594.471 757.931,596.305 763.5,597.5C 763.813,601.042 763.479,604.375 762.5,607.5C 760.373,617.028 758.373,626.695 756.5,636.5C 755.833,636.5 755.5,636.833 755.5,637.5C 750.595,638.445 745.595,638.779 740.5,638.5C 739.227,635.022 737.227,631.855 734.5,629C 728.282,625.093 721.615,622.926 714.5,622.5C 712.19,621.836 709.69,621.503 707,621.5C 704.071,621.525 701.571,622.191 699.5,623.5C 699.167,623.5 698.833,623.5 698.5,623.5C 695.811,624.189 694.144,625.856 693.5,628.5C 690.525,632.471 691.191,635.971 695.5,639C 705.397,642.186 715.397,645.186 725.5,648C 732.833,650.503 739.333,654.336 745,659.5C 747.324,662.48 748.824,665.813 749.5,669.5C 749.5,669.833 749.5,670.167 749.5,670.5C 752.287,671.477 755.287,671.81 758.5,671.5C 758.867,679.308 758.201,686.974 756.5,694.5C 754.723,697.23 753.389,700.23 752.5,703.5C 739.936,723.574 721.936,735.241 698.5,738.5C 688.161,738.666 677.828,738.5 667.5,738C 662.506,735.672 657.173,734.839 651.5,735.5C 649.473,735.662 647.473,735.495 645.5,735C 639.675,732.642 634.008,730.142 628.5,727.5C 630.224,722.345 631.224,717.011 631.5,711.5C 633.841,705.844 635.174,699.844 635.5,693.5C 636.468,691.393 636.802,689.059 636.5,686.5C 641.5,686.5 646.5,686.5 651.5,686.5C 655.313,695.645 661.98,701.645 671.5,704.5C 677.443,706.405 683.443,706.738 689.5,705.5C 694.137,705.206 698.47,703.873 702.5,701.5C 707.353,695.421 706.353,690.754 699.5,687.5C 693.658,684.983 687.658,682.983 681.5,681.5C 679.898,679.926 677.898,679.259 675.5,679.5C 669.408,677.742 663.741,675.075 658.5,671.5C 658.5,670.5 658.5,669.5 658.5,668.5C 654.102,668.706 649.768,668.373 645.5,667.5C 643.077,665.243 641.243,662.576 640,659.5C 639.5,651.841 639.334,644.174 639.5,636.5C 641.309,633.104 643.309,629.771 645.5,626.5C 646.171,623.815 646.838,621.148 647.5,618.5C 647.351,617.448 647.517,616.448 648,615.5C 656.954,604.551 668.121,596.718 681.5,592C 683.473,591.505 685.473,591.338 687.5,591.5C 705.515,587.528 723.515,587.528 741.5,591.5 Z"/></g>
<g><path style="opacity:1" fill="#f70000" d="M 410.5,593.5 C 408.369,600.657 407.036,607.99 406.5,615.5C 404.21,618.884 402.877,622.717 402.5,627C 389.504,627.5 376.504,627.667 363.5,627.5C 363.167,630.167 362.833,632.833 362.5,635.5C 360.409,644.593 358.076,653.593 355.5,662.5C 354.307,664.97 353.807,667.636 354,670.5C 356.041,671.423 358.208,671.756 360.5,671.5C 360.464,676.93 359.797,682.263 358.5,687.5C 358.007,689.806 357.674,692.139 357.5,694.5C 354.886,697.931 353.886,701.931 354.5,706.5C 353.656,712.608 352.656,718.608 351.5,724.5C 350.883,724.611 350.383,724.944 350,725.5C 349.581,729.392 348.748,733.058 347.5,736.5C 330.991,736.83 314.658,736.496 298.5,735.5C 299.468,733.393 299.802,731.059 299.5,728.5C 301.898,724.597 303.231,720.264 303.5,715.5C 303.5,714.5 303.5,713.5 303.5,712.5C 304.649,712.209 305.316,711.376 305.5,710C 306.077,707.863 306.41,705.696 306.5,703.5C 307.833,703.5 309.167,703.5 310.5,703.5C 310.768,706.119 310.435,708.619 309.5,711C 309.833,711.167 310.167,711.333 310.5,711.5C 311.333,709.5 312.167,707.5 313,705.5C 314.092,708.044 314.759,710.711 315,713.5C 315.256,710.443 315.756,707.443 316.5,704.5C 314.955,703.548 313.288,703.215 311.5,703.5C 311.019,699.798 310.352,696.131 309.5,692.5C 311.992,685.122 313.325,677.455 313.5,669.5C 310.833,669.5 308.167,669.5 305.5,669.5C 305.5,668.5 305.5,667.5 305.5,666.5C 305.87,662.767 306.537,659.101 307.5,655.5C 308.768,653.095 309.435,650.428 309.5,647.5C 309.5,647.167 309.5,646.833 309.5,646.5C 310.924,644.485 311.59,642.152 311.5,639.5C 314.315,635.789 314.981,631.789 313.5,627.5C 301.345,626.505 289.011,626.171 276.5,626.5C 276.704,623.482 277.037,620.482 277.5,617.5C 278.755,612.224 279.755,606.891 280.5,601.5C 282.99,598.374 284.323,594.708 284.5,590.5C 326.5,590.5 368.5,590.5 410.5,590.5C 410.5,591.5 410.5,592.5 410.5,593.5 Z"/></g>
<g><path style="opacity:1" fill="#f70001" d="M 491.5,616.5 C 491.201,624.396 491.868,632.063 493.5,639.5C 492.887,645.271 493.554,650.604 495.5,655.5C 495.5,659.167 495.5,662.833 495.5,666.5C 495.104,669.044 495.771,671.211 497.5,673C 500.817,673.498 504.15,673.665 507.5,673.5C 507.849,686.17 508.349,698.837 509,711.5C 509.122,713.437 509.955,714.77 511.5,715.5C 511.5,718.5 511.5,721.5 511.5,724.5C 512.162,728.466 512.495,732.466 512.5,736.5C 496.167,736.5 479.833,736.5 463.5,736.5C 463.5,736.167 463.5,735.833 463.5,735.5C 463.108,726.594 462.441,717.76 461.5,709C 451.325,708.175 441.325,708.342 431.5,709.5C 431.657,710.873 431.49,712.207 431,713.5C 430.124,715.758 428.957,717.758 427.5,719.5C 424.65,724.702 421.983,730.035 419.5,735.5C 402.911,736.485 386.244,736.818 369.5,736.5C 369.5,736.167 369.5,735.833 369.5,735.5C 371.199,733.434 372.532,731.1 373.5,728.5C 381.876,712.755 390.543,697.088 399.5,681.5C 400.5,681.5 401.5,681.5 402.5,681.5C 402.629,678.234 403.629,675.234 405.5,672.5C 402.572,671.516 399.572,671.183 396.5,671.5C 396.983,668.342 397.983,665.342 399.5,662.5C 400.092,659.309 401.259,656.309 403,653.5C 411.019,640.12 419.019,626.786 427,613.5C 428.214,610.018 429.714,606.685 431.5,603.5C 434.633,599.928 437.3,595.928 439.5,591.5C 455.426,590.35 471.426,590.183 487.5,591C 488.221,599.691 489.554,608.191 491.5,616.5 Z"/></g>
<g><path style="opacity:1" fill="#f70000" d="M 640.5,595.5 C 639.781,597.764 639.448,600.097 639.5,602.5C 638.542,602.953 637.708,603.619 637,604.5C 636.565,609.184 636.065,613.851 635.5,618.5C 635.658,621.545 634.991,624.379 633.5,627C 620.504,627.5 607.504,627.667 594.5,627.5C 593.275,628.152 592.608,629.319 592.5,631C 592.083,633.498 591.749,635.998 591.5,638.5C 589.502,648.83 587.502,659.163 585.5,669.5C 587.607,670.468 589.941,670.802 592.5,670.5C 592.167,673.167 591.833,675.833 591.5,678.5C 588.902,692.365 585.902,706.032 582.5,719.5C 580.763,723.542 579.763,727.876 579.5,732.5C 578.566,733.568 578.232,734.901 578.5,736.5C 562.167,736.5 545.833,736.5 529.5,736.5C 530.81,730.978 531.81,725.311 532.5,719.5C 533.232,713.906 534.565,708.573 536.5,703.5C 538.195,701.268 539.362,698.601 540,695.5C 540.437,688.364 541.603,681.364 543.5,674.5C 543.5,673.167 543.5,671.833 543.5,670.5C 541.393,669.532 539.059,669.198 536.5,669.5C 536.5,668.5 536.5,667.5 536.5,666.5C 537.552,666.649 538.552,666.483 539.5,666C 538.526,661.564 538.526,657.064 539.5,652.5C 539.5,651.5 539.5,650.5 539.5,649.5C 541.991,645.64 543.325,641.307 543.5,636.5C 543.5,634.833 543.5,633.167 543.5,631.5C 545.213,630.365 545.88,628.698 545.5,626.5C 532.5,626.5 519.5,626.5 506.5,626.5C 506.5,625.5 506.5,624.5 506.5,623.5C 509.284,618.64 510.618,613.307 510.5,607.5C 511.236,602.239 512.236,596.906 513.5,591.5C 555.761,590.506 598.094,590.173 640.5,590.5C 640.5,592.167 640.5,593.833 640.5,595.5 Z"/></g>
<g><path style="opacity:1" fill="#9c1310" d="M 439.5,591.5 C 437.3,595.928 434.633,599.928 431.5,603.5C 433.203,598.732 435.87,594.732 439.5,591.5 Z"/></g>
<g><path style="opacity:1" fill="#cd0e0f" d="M 252.5,591.5 C 258.657,593.829 264.824,596.163 271,598.5C 269.21,607.975 267.043,617.308 264.5,626.5C 266.126,617.293 267.459,607.96 268.5,598.5C 262.466,597.045 257.132,595.712 252.5,594.5C 252.5,593.5 252.5,592.5 252.5,591.5 Z"/></g>
<g><path style="opacity:1" fill="#a81212" d="M 639.5,602.5 C 638.796,608.116 637.463,613.449 635.5,618.5C 636.065,613.851 636.565,609.184 637,604.5C 637.708,603.619 638.542,602.953 639.5,602.5 Z"/></g>
<g><path style="opacity:1" fill="#ae1311" d="M 510.5,607.5 C 510.618,613.307 509.284,618.64 506.5,623.5C 506.716,617.711 508.049,612.378 510.5,607.5 Z"/></g>
<g><path style="opacity:1" fill="#a71b1a" d="M 223.5,622.5 C 218.105,622.267 212.772,622.6 207.5,623.5C 209.743,622.188 212.41,621.522 215.5,621.5C 218.355,621.503 221.022,621.836 223.5,622.5 Z"/></g>
<g><path style="opacity:1" fill="#b31411" d="M 714.5,622.5 C 709.463,622.413 704.463,622.746 699.5,623.5C 701.571,622.191 704.071,621.525 707,621.5C 709.69,621.503 712.19,621.836 714.5,622.5 Z"/></g>
<g><path style="opacity:1" fill="#721612" d="M 491.5,616.5 C 492.972,623.951 493.639,631.618 493.5,639.5C 491.868,632.063 491.201,624.396 491.5,616.5 Z"/></g>
<g><path style="opacity:1" fill="#c90e0c" d="M 647.5,618.5 C 646.838,621.148 646.171,623.815 645.5,626.5C 643.309,629.771 641.309,633.104 639.5,636.5C 639.523,634.073 640.023,631.74 641,629.5C 642.731,625.551 644.898,621.884 647.5,618.5 Z"/></g>
<g><path style="opacity:1" fill="#6e1213" d="M 698.5,623.5 C 697.215,625.452 695.549,627.118 693.5,628.5C 694.144,625.856 695.811,624.189 698.5,623.5 Z"/></g>
<g><path style="opacity:1" fill="#341615" d="M 762.5,607.5 C 762.26,611.969 762.927,616.302 764.5,620.5C 764.167,621.5 763.833,622.5 763.5,623.5C 762.609,618.555 761.609,618.388 760.5,623C 763.754,626.211 763.087,627.711 758.5,627.5C 758.932,630.877 758.265,633.877 756.5,636.5C 758.373,626.695 760.373,617.028 762.5,607.5 Z"/></g>
<g><path style="opacity:1" fill="#9e1111" d="M 277.5,617.5 C 277.037,620.482 276.704,623.482 276.5,626.5C 289.011,626.171 301.345,626.505 313.5,627.5C 300.833,627.5 288.167,627.5 275.5,627.5C 275.336,624.813 275.503,622.146 276,619.5C 276.278,618.584 276.778,617.918 277.5,617.5 Z"/></g>
<g><path style="opacity:1" fill="#9f1110" d="M 506.5,623.5 C 506.5,624.5 506.5,625.5 506.5,626.5C 519.5,626.5 532.5,626.5 545.5,626.5C 545.88,628.698 545.213,630.365 543.5,631.5C 543.539,630.417 543.873,629.417 544.5,628.5C 531.517,627.501 518.517,627.168 505.5,627.5C 505.232,625.901 505.566,624.568 506.5,623.5 Z"/></g>
<g><path style="opacity:1" fill="#38110f" d="M 406.5,615.5 C 405.802,619.755 404.802,623.922 403.5,628C 390.504,628.5 377.504,628.667 364.5,628.5C 364.59,631.152 363.924,633.485 362.5,635.5C 362.833,632.833 363.167,630.167 363.5,627.5C 376.504,627.667 389.504,627.5 402.5,627C 402.877,622.717 404.21,618.884 406.5,615.5 Z"/></g>
<g><path style="opacity:1" fill="#a71415" d="M 594.5,627.5 C 594.139,631.463 593.139,635.13 591.5,638.5C 591.749,635.998 592.083,633.498 592.5,631C 592.608,629.319 593.275,628.152 594.5,627.5 Z"/></g>
<g><path style="opacity:1" fill="#ac1612" d="M 313.5,627.5 C 314.981,631.789 314.315,635.789 311.5,639.5C 312.376,635.538 313.042,631.538 313.5,627.5 Z"/></g>
<g><path style="opacity:1" fill="#8b090c" d="M 262.5,636.5 C 262.586,637.496 262.252,638.329 261.5,639C 256.833,639.667 252.167,639.667 247.5,639C 246.944,638.617 246.611,638.117 246.5,637.5C 251.927,637.782 257.26,637.449 262.5,636.5 Z"/></g>
<g><path style="opacity:1" fill="#720202" d="M 755.5,637.5 C 753.429,638.809 750.929,639.475 748,639.5C 745.31,639.497 742.81,639.164 740.5,638.5C 745.595,638.779 750.595,638.445 755.5,637.5 Z"/></g>
<g><path style="opacity:1" fill="#a1120f" d="M 150.5,625.5 C 149.057,630.067 147.89,634.734 147,639.5C 146.501,644.823 146.334,650.156 146.5,655.5C 145.347,649.347 145.18,643.014 146,636.5C 146.644,632.381 148.144,628.715 150.5,625.5 Z"/></g>
<g><path style="opacity:1" fill="#821516" d="M 311.5,639.5 C 311.59,642.152 310.924,644.485 309.5,646.5C 309.41,643.848 310.076,641.515 311.5,639.5 Z"/></g>
<g><path style="opacity:1" fill="#750f11" d="M 493.5,639.5 C 494.551,644.646 495.218,649.979 495.5,655.5C 493.554,650.604 492.887,645.271 493.5,639.5 Z"/></g>
<g><path style="opacity:1" fill="#8f1112" d="M 543.5,636.5 C 543.325,641.307 541.991,645.64 539.5,649.5C 540.013,645.447 540.846,641.447 542,637.5C 542.383,636.944 542.883,636.611 543.5,636.5 Z"/></g>
<g><path style="opacity:1" fill="#751612" d="M 309.5,647.5 C 309.435,650.428 308.768,653.095 307.5,655.5C 307.294,652.505 307.96,649.838 309.5,647.5 Z"/></g>
<g><path style="opacity:1" fill="#bd110c" d="M 231.5,647.5 C 236.231,648.221 240.231,650.221 243.5,653.5C 240.079,652.92 236.745,652.92 233.5,653.5C 234.5,652.833 235.5,652.167 236.5,651.5C 234.799,650.165 233.132,648.832 231.5,647.5 Z"/></g>
<g><path style="opacity:1" fill="#221919" d="M 447.5,643.5 C 448.167,653.167 448.833,662.833 449.5,672.5C 452.305,673.319 455.305,673.819 458.5,674C 454.848,674.499 451.182,674.665 447.5,674.5C 447.082,673.778 446.416,673.278 445.5,673C 442.854,672.503 440.187,672.336 437.5,672.5C 440.449,662.651 443.783,652.984 447.5,643.5 Z"/></g>
<g><path style="opacity:1" fill="#7b1213" d="M 449.5,672.5 C 448.833,662.833 448.167,653.167 447.5,643.5C 447.369,642.624 447.702,641.957 448.5,641.5C 449.499,651.812 449.832,662.145 449.5,672.5 Z"/></g>
<g><path style="opacity:1" fill="#bb1312" d="M 539.5,652.5 C 538.526,657.064 538.526,661.564 539.5,666C 538.552,666.483 537.552,666.649 536.5,666.5C 536.5,667.5 536.5,668.5 536.5,669.5C 539.059,669.198 541.393,669.532 543.5,670.5C 540.833,670.5 538.167,670.5 535.5,670.5C 535.916,664.182 537.249,658.182 539.5,652.5 Z"/></g>
<g><path style="opacity:1" fill="#ca1110" d="M 645.5,667.5 C 649.768,668.373 654.102,668.706 658.5,668.5C 658.5,669.5 658.5,670.5 658.5,671.5C 654.881,670.82 651.214,670.32 647.5,670C 646.619,669.292 645.953,668.458 645.5,667.5 Z"/></g>
<g><path style="opacity:1" fill="#871415" d="M 585.5,669.5 C 588.167,669.5 590.833,669.5 593.5,669.5C 593.664,672.187 593.497,674.854 593,677.5C 592.617,678.056 592.117,678.389 591.5,678.5C 591.833,675.833 592.167,673.167 592.5,670.5C 589.941,670.802 587.607,670.468 585.5,669.5 Z"/></g>
<g><path style="opacity:1" fill="#c60e0c" d="M 399.5,662.5 C 397.983,665.342 396.983,668.342 396.5,671.5C 399.572,671.183 402.572,671.516 405.5,672.5C 403.629,675.234 402.629,678.234 402.5,681.5C 401.5,681.5 400.5,681.5 399.5,681.5C 400.344,678.745 401.344,676.079 402.5,673.5C 399.428,673.817 396.428,673.484 393.5,672.5C 394.598,668.427 396.598,665.094 399.5,662.5 Z"/></g>
<g><path style="opacity:1" fill="#4a1114" d="M 495.5,666.5 C 497.213,667.635 497.88,669.302 497.5,671.5C 501.329,670.931 504.663,671.598 507.5,673.5C 504.15,673.665 500.817,673.498 497.5,673C 495.771,671.211 495.104,669.044 495.5,666.5 Z"/></g>
<g><path style="opacity:1" fill="#be1010" d="M 355.5,662.5 C 355.5,664.833 355.5,667.167 355.5,669.5C 358.247,669.187 360.914,669.52 363.5,670.5C 362.199,676.39 360.532,682.057 358.5,687.5C 359.797,682.263 360.464,676.93 360.5,671.5C 358.208,671.756 356.041,671.423 354,670.5C 353.807,667.636 354.307,664.97 355.5,662.5 Z"/></g>
<g><path style="opacity:1" fill="#7d1613" d="M 449.5,672.5 C 452.833,672.5 456.167,672.5 459.5,672.5C 459.5,673.5 459.5,674.5 459.5,675.5C 455.298,675.817 451.298,675.483 447.5,674.5C 451.182,674.665 454.848,674.499 458.5,674C 455.305,673.819 452.305,673.319 449.5,672.5 Z"/></g>
<g><path style="opacity:1" fill="#701919" d="M 749.5,670.5 C 749.5,670.167 749.5,669.833 749.5,669.5C 753.167,669.5 756.833,669.5 760.5,669.5C 760.819,674.363 760.486,679.03 759.5,683.5C 759.5,679.167 759.5,674.833 759.5,670.5C 756.167,670.5 752.833,670.5 749.5,670.5 Z"/></g>
<g><path style="opacity:1" fill="#aa1311" d="M 255.5,669.5 C 259.167,669.5 262.833,669.5 266.5,669.5C 266.766,672.666 267.099,675.833 267.5,679C 266.443,682.872 265.443,686.705 264.5,690.5C 265.139,683.852 265.473,677.186 265.5,670.5C 261.958,670.813 258.625,670.479 255.5,669.5 Z"/></g>
<g><path style="opacity:1" fill="#931218" d="M 675.5,679.5 C 677.898,679.259 679.898,679.926 681.5,681.5C 679.102,681.741 677.102,681.074 675.5,679.5 Z"/></g>
<g><path style="opacity:1" fill="#a10e10" d="M 651.5,686.5 C 646.5,686.5 641.5,686.5 636.5,686.5C 636.802,689.059 636.468,691.393 635.5,693.5C 635.5,690.833 635.5,688.167 635.5,685.5C 641.026,685.179 646.36,685.512 651.5,686.5 Z"/></g>
<g><path style="opacity:1" fill="#c40e0e" d="M 749.5,670.5 C 752.833,670.5 756.167,670.5 759.5,670.5C 759.5,674.833 759.5,679.167 759.5,683.5C 759.871,687.696 758.871,691.363 756.5,694.5C 758.201,686.974 758.867,679.308 758.5,671.5C 755.287,671.81 752.287,671.477 749.5,670.5 Z"/></g>
<g><path style="opacity:1" fill="#e00a09" d="M 305.5,666.5 C 305.5,667.5 305.5,668.5 305.5,669.5C 308.167,669.5 310.833,669.5 313.5,669.5C 313.325,677.455 311.992,685.122 309.5,692.5C 310.352,696.131 311.019,699.798 311.5,703.5C 313.288,703.215 314.955,703.548 316.5,704.5C 315.756,707.443 315.256,710.443 315,713.5C 314.759,710.711 314.092,708.044 313,705.5C 312.167,707.5 311.333,709.5 310.5,711.5C 310.167,711.333 309.833,711.167 309.5,711C 310.435,708.619 310.768,706.119 310.5,703.5C 309.167,703.5 307.833,703.5 306.5,703.5C 306.41,705.696 306.077,707.863 305.5,710C 305.316,711.376 304.649,712.209 303.5,712.5C 307.33,698.677 310.33,684.677 312.5,670.5C 309.833,670.5 307.167,670.5 304.5,670.5C 304.232,668.901 304.566,667.568 305.5,666.5 Z"/></g>
<g><path style="opacity:1" fill="#b51311" d="M 543.5,674.5 C 541.603,681.364 540.437,688.364 540,695.5C 539.362,698.601 538.195,701.268 536.5,703.5C 538.562,697.023 539.728,690.356 540,683.5C 540.657,680.092 541.823,677.092 543.5,674.5 Z"/></g>
<g><path style="opacity:1" fill="#661314" d="M 509.5,689.5 C 510.521,693.98 511.187,698.647 511.5,703.5C 509.789,699.119 509.123,694.453 509.5,689.5 Z"/></g>
<g><path style="opacity:1" fill="#971315" d="M 262.5,696.5 C 261.985,700.299 260.319,703.299 257.5,705.5C 258.807,702.22 260.473,699.22 262.5,696.5 Z"/></g>
<g><path style="opacity:1" fill="#b51411" d="M 357.5,694.5 C 357.416,698.837 356.416,702.837 354.5,706.5C 353.886,701.931 354.886,697.931 357.5,694.5 Z"/></g>
<g><path style="opacity:1" fill="#881612" d="M 756.5,694.5 C 756.208,698.066 754.874,701.066 752.5,703.5C 753.389,700.23 754.723,697.23 756.5,694.5 Z"/></g>
<g><path style="opacity:1" fill="#d00c0b" d="M 507.5,673.5 C 508.806,678.616 509.473,683.949 509.5,689.5C 509.123,694.453 509.789,699.119 511.5,703.5C 511.5,707.5 511.5,711.5 511.5,715.5C 509.955,714.77 509.122,713.437 509,711.5C 508.349,698.837 507.849,686.17 507.5,673.5 Z"/></g>
<g><path style="opacity:1" fill="#530b0b" d="M 178.5,703.5 C 183.777,704.493 189.11,705.16 194.5,705.5C 193.378,706.156 192.045,706.489 190.5,706.5C 186.827,706.047 183.16,705.547 179.5,705C 178.944,704.617 178.611,704.117 178.5,703.5 Z"/></g>
<g><path style="opacity:1" fill="#570e0d" d="M 671.5,704.5 C 677.5,704.833 683.5,705.167 689.5,705.5C 683.443,706.738 677.443,706.405 671.5,704.5 Z"/></g>
<g><path style="opacity:1" fill="#b61314" d="M 635.5,693.5 C 635.174,699.844 633.841,705.844 631.5,711.5C 631.283,705.047 632.616,699.047 635.5,693.5 Z"/></g>
<g><path style="opacity:1" fill="#b01210" d="M 431.5,709.5 C 441.325,708.342 451.325,708.175 461.5,709C 462.441,717.76 463.108,726.594 463.5,735.5C 461.823,727.316 460.823,718.816 460.5,710C 450.839,709.5 441.172,709.334 431.5,709.5 Z"/></g>
<g><path style="opacity:1" fill="#78140f" d="M 137.5,713.5 C 137.741,715.898 137.074,717.898 135.5,719.5C 135.259,717.102 135.926,715.102 137.5,713.5 Z"/></g>
<g><path style="opacity:1" fill="#b31011" d="M 631.5,711.5 C 631.224,717.011 630.224,722.345 628.5,727.5C 627.876,727.083 627.543,726.416 627.5,725.5C 628.75,721.248 629.584,716.914 630,712.5C 630.383,711.944 630.883,711.611 631.5,711.5 Z"/></g>
<g><path style="opacity:1" fill="#881618" d="M 303.5,715.5 C 303.231,720.264 301.898,724.597 299.5,728.5C 300.284,723.786 301.618,719.452 303.5,715.5 Z"/></g>
<g><path style="opacity:1" fill="#551614" d="M 427.5,719.5 C 426.454,724.483 424.621,729.15 422,733.5C 421.292,734.381 420.458,735.047 419.5,735.5C 421.983,730.035 424.65,724.702 427.5,719.5 Z"/></g>
<g><path style="opacity:1" fill="#9f1515" d="M 582.5,719.5 C 582.048,723.163 581.548,726.83 581,730.5C 580.722,731.416 580.222,732.082 579.5,732.5C 579.763,727.876 580.763,723.542 582.5,719.5 Z"/></g>
<g><path style="opacity:1" fill="#421513" d="M 532.5,719.5 C 531.81,725.311 530.81,730.978 529.5,736.5C 529.5,736.833 529.5,737.167 529.5,737.5C 528.03,732.379 527.53,727.046 528,721.5C 528.186,723.9 528.686,726.234 529.5,728.5C 530.042,725.214 531.042,722.214 532.5,719.5 Z"/></g>
<g><path style="opacity:1" fill="#a21214" d="M 140.5,729.5 C 144.573,730.367 148.573,731.534 152.5,733C 153.381,733.708 154.047,734.542 154.5,735.5C 149.311,734.446 144.644,732.446 140.5,729.5 Z"/></g>
<g><path style="opacity:1" fill="#901416" d="M 373.5,728.5 C 372.532,731.1 371.199,733.434 369.5,735.5C 369.725,732.454 371.058,730.121 373.5,728.5 Z"/></g>
<g><path style="opacity:1" fill="#c41816" d="M 298.5,735.5 C 314.658,736.496 330.991,736.83 347.5,736.5C 331.008,737.497 314.342,737.83 297.5,737.5C 297.328,736.508 297.662,735.842 298.5,735.5 Z"/></g>
<g><path style="opacity:1" fill="#940d0e" d="M 419.5,735.5 C 411.528,736.831 403.194,737.498 394.5,737.5C 385.993,737.5 377.66,737.166 369.5,736.5C 386.244,736.818 402.911,736.485 419.5,735.5 Z"/></g>
<g><path style="opacity:1" fill="#990d0d" d="M 511.5,724.5 C 512.268,725.263 512.768,726.263 513,727.5C 513.498,730.817 513.665,734.15 513.5,737.5C 496.658,737.83 479.992,737.497 463.5,736.5C 479.833,736.5 496.167,736.5 512.5,736.5C 512.495,732.466 512.162,728.466 511.5,724.5 Z"/></g>
<g><path style="opacity:1" fill="#c41715" d="M 579.5,732.5 C 579.5,734.167 579.5,735.833 579.5,737.5C 562.833,737.5 546.167,737.5 529.5,737.5C 529.5,737.167 529.5,736.833 529.5,736.5C 545.833,736.5 562.167,736.5 578.5,736.5C 578.232,734.901 578.566,733.568 579.5,732.5 Z"/></g>
<g><path style="opacity:1" fill="#360f0d" d="M 351.5,724.5 C 351.114,729.176 350.114,733.676 348.5,738C 331.328,738.828 314.328,738.662 297.5,737.5C 314.342,737.83 331.008,737.497 347.5,736.5C 348.748,733.058 349.581,729.392 350,725.5C 350.383,724.944 350.883,724.611 351.5,724.5 Z"/></g>
<g><path style="opacity:1" fill="#c41412" d="M 159.5,736.5 C 173.997,738.217 188.664,738.883 203.5,738.5C 188.69,740.95 174.024,740.284 159.5,736.5 Z"/></g>
<g><path style="opacity:1" fill="#102324" d="M 368.5,738.5 C 385.513,738.167 402.513,738.501 419.5,739.5C 411,739.833 402.5,740.167 394,740.5C 385.139,740.498 376.639,739.831 368.5,738.5 Z"/></g>
<g><path style="opacity:1" fill="#0e2524" d="M 529.5,738.5 C 546.18,738.167 562.847,738.501 579.5,739.5C 562.176,740.666 544.843,740.833 527.5,740C 528.416,739.722 529.082,739.222 529.5,738.5 Z"/></g>
<g><path style="opacity:1" fill="#c01411" d="M 651.5,735.5 C 657.173,734.839 662.506,735.672 667.5,738C 677.828,738.5 688.161,738.666 698.5,738.5C 683.211,741.286 667.878,740.786 652.5,737C 651.944,736.617 651.611,736.117 651.5,735.5 Z"/></g>
</svg>
